<mxfile host="app.diagrams.net" agent="Mozilla/5.0 (Windows NT 10.0; Win64; x64) AppleWebKit/537.36 (KHTML, like Gecko) Chrome/131.0.0.0 Safari/537.36 Edg/131.0.0.0" version="24.8.6">
  <diagram name="Page-1" id="bE8deYzzlRr8Tks1HE-z">
    <mxGraphModel dx="1380" dy="1030" grid="1" gridSize="10" guides="1" tooltips="1" connect="1" arrows="1" fold="1" page="1" pageScale="1" pageWidth="850" pageHeight="1100" math="0" shadow="0">
      <root>
        <mxCell id="0" />
        <mxCell id="1" parent="0" />
        <mxCell id="c_UcBkwbiENUfPyKDJAs-5" value="REACHING END OF&amp;nbsp;&lt;div&gt;LEVEL&lt;/div&gt;" style="ellipse;whiteSpace=wrap;html=1;aspect=fixed;verticalAlign=top;fillColor=#087308;" vertex="1" parent="1">
          <mxGeometry x="210" y="325" width="420" height="420" as="geometry" />
        </mxCell>
        <mxCell id="c_UcBkwbiENUfPyKDJAs-4" value="DANGER" style="ellipse;whiteSpace=wrap;html=1;aspect=fixed;verticalAlign=top;fillColor=#1C7D04;" vertex="1" parent="1">
          <mxGeometry x="267.5" y="382.5" width="305" height="305" as="geometry" />
        </mxCell>
        <mxCell id="c_UcBkwbiENUfPyKDJAs-2" value="ACTION" style="ellipse;whiteSpace=wrap;html=1;aspect=fixed;shadow=1;verticalAlign=top;fillColor=#19AB24;" vertex="1" parent="1">
          <mxGeometry x="315" y="435" width="210" height="210" as="geometry" />
        </mxCell>
        <mxCell id="c_UcBkwbiENUfPyKDJAs-1" value="PLATFORMING" style="ellipse;whiteSpace=wrap;html=1;aspect=fixed;fillColor=#63F026;" vertex="1" parent="1">
          <mxGeometry x="365" y="485" width="110" height="110" as="geometry" />
        </mxCell>
      </root>
    </mxGraphModel>
  </diagram>
</mxfile>
